# xmcd
#
# Track frame offsets: 
#        150
#        19486
#        38550
#        59824
#        81974
#        99176
#        126661
#        148274
#        166890
#        188765
#        213755
#        231623
#        252897
#        275084
#
# Disc length: 3897 seconds
#
# Revision: 0
# Processed by: cddbd v1.5.2PL0 Copyright (c) Steve Scherf et al.
# Submitted via: ExactAudioCopy v0.99pb4
#
DISCID=d40f370e
DTITLE=Revolver - Argan
DYEAR=2011
DGENRE=Pop
TTITLE0=No hay mañanas
TTITLE1=Cada dia
TTITLE2=Quiero aire
TTITLE3=Manos arriba
TTITLE4=Lo que me hace feliz
TTITLE5=Reconozco la frontera
TTITLE6=Mi norte siempre apunta al sur
TTITLE7=Intentando vadear
TTITLE8=Princesas o mendigos
TTITLE9=Y del hombre
TTITLE10=Ya no hay dos para cenar
TTITLE11=Quiero aire II
TTITLE12=Manos arriba II
TTITLE13=Lo que me hace feliz II
EXTD=
EXTT0=
EXTT1=
EXTT2=
EXTT3=
EXTT4=
EXTT5=
EXTT6=
EXTT7=
EXTT8=
EXTT9=
EXTT10=
EXTT11=
EXTT12=
EXTT13=
PLAYORDER=
